<svg height="20" width="20" xmlns="http://www.w3.org/2000/svg"><path d="M18.918 0a1.052 1.052 0 00-.116.01H12.1a1.052 1.052 0 100 2.105h4.299L9.25 9.262a1.052 1.052 0 101.488 1.488l7.147-7.147v4.299a1.052 1.052 0 102.105 0v-6.71A1.052 1.052 0 0018.918 0zM3.946 1.59A3.962 3.962 0 000 5.534v10.522A3.962 3.962 0 003.946 20h10.52a3.962 3.962 0 003.947-3.945v-4.998a1.053 1.053 0 10-2.105 0v4.998a1.832 1.832 0 01-1.841 1.841H3.946a1.832 1.832 0 01-1.842-1.841V5.534c0-1.024.817-1.84 1.842-1.84h4.997a1.052 1.052 0 100-2.105z" fill="#0d84fb"/></svg>