<svg height="14" width="14" xmlns="http://www.w3.org/2000/svg"><g fill="#fff"><path d="M13.944 4.107c-.033-.742-.153-1.252-.325-1.695a3.41 3.41 0 00-.808-1.239 3.438 3.438 0 00-1.236-.805C11.13.196 10.623.076 9.881.044 9.133.008 8.895 0 6.999 0s-2.134.008-2.88.04c-.742.034-1.252.154-1.694.326-.47.177-.89.45-1.24.807A3.44 3.44 0 00.382 2.41C.21 2.855.09 3.362.057 4.104c-.036.748-.044.986-.044 2.882s.007 2.134.04 2.88c.033.742.153 1.252.325 1.694.177.47.453.89.808 1.24.35.354.772.63 1.236.804.445.172.952.292 1.695.325.745.033.982.04 2.879.04s2.134-.007 2.88-.04c.741-.033 1.252-.153 1.694-.325a3.573 3.573 0 002.044-2.044c.172-.445.292-.952.325-1.695.032-.745.04-.982.04-2.879s-.002-2.134-.035-2.879zm-1.258 5.704c-.03.682-.145 1.05-.24 1.296a2.317 2.317 0 01-1.327 1.327c-.245.095-.616.21-1.296.24-.737.032-.958.04-2.822.04s-2.087-.008-2.822-.04c-.682-.03-1.05-.145-1.296-.24a2.15 2.15 0 01-.802-.522 2.16 2.16 0 01-.521-.802c-.096-.246-.21-.617-.24-1.296-.033-.737-.041-.958-.041-2.822s.008-2.088.04-2.822c.03-.682.145-1.05.24-1.296.113-.303.29-.579.525-.803.226-.232.499-.41.802-.52.246-.096.617-.211 1.296-.241.737-.033.958-.041 2.822-.041 1.867 0 2.088.008 2.822.04.682.031 1.05.146 1.296.241.303.112.579.29.803.521.232.227.409.5.52.803.096.245.21.616.241 1.296.033.737.04.958.04 2.822s-.007 2.082-.04 2.819z"/><path d="M6.999 3.398a3.59 3.59 0 000 7.177 3.59 3.59 0 000-7.177zm0 5.916a2.328 2.328 0 110-4.656 2.328 2.328 0 010 4.656zm4.568-6.058a.838.838 0 11-1.676 0 .838.838 0 011.676 0z"/></g></svg>