<svg height="700pt" viewBox="0 0 700 700" width="700pt" xmlns="http://www.w3.org/2000/svg"><path d="M112.3 36.5c-10.7 2.5-19.9 9.9-24.8 20-3.5 7-4.3 18.9-1.9 25.7.8 2.2 1.3 4.3 1.1 4.5s-2.3-.3-4.6-1.1c-6.6-2.4-18.4-1.6-25.4 1.7-10.6 5.1-18.4 15.2-20.5 26.8-2 10.9 1.7 23.1 9.6 31.2 15.9 16.4 41.8 14.4 55.8-4.4l2-2.8 7.3 7 7.2 7.1 3.6-4.9c4.6-6.1 16.2-19.2 23.2-26.1l5.3-5.4-6.1-6-6-6 4.9-3.9c8.1-6.4 13.2-17 13.3-27.4 0-7.1-.7-10.6-3.8-16.6-7.5-15.2-24-23.1-40.2-19.4zm465.2-.3c-17.8 3-30.9 19.7-29.8 38.1.5 7.8 4.9 17.3 10.7 23.2 2.5 2.5 4.6 4.7 4.6 4.9s-2.9 3.3-6.5 7l-6.5 6.7 5.2 5.2c7.6 7.5 14.4 15.2 23.2 26l3.9 4.9 3.7-3.7 3.7-3.7 2.2 3.5c9.1 14.8 30 22 46.1 16 19.2-7.2 29.8-26.2 25.3-45.8-2.7-11.8-9.9-20.7-21.1-26.3-7.1-3.5-8.2-3.7-16.8-3.7h-9.1l1.8-5.3c2.6-7.5 2-18.9-1.3-26.2-6.8-15-22.9-23.5-39.3-20.8zM329.9 75.4c-.2.2-3.1.6-6.4 1-35.6 3.7-72.1 16.9-102.6 37.1-59.2 39.3-97.4 102.3-105.5 174-.9 8.4-1.2 38.6-.3 45.5 1.2 10.8 1.9 15.3 2.9 20.5.6 2.7 1.2 5.9 1.4 7 2.3 11.6 9 32 15.7 47.6l5.1 11.7-2.1 5.9c-5.9 16.3-3.4 34.6 7.1 52.4 3.7 6.2 18.6 22.7 25 27.6 8.4 6.4 23.4 14 34.1 17.3 10.2 3.1 11.6 3.3 27 3.5l14.9.2 2.7 3.4c3 3.6 13.1 20.7 13.1 22.2 0 .4 1.1 3.2 2.4 6 1.3 2.9 3.1 7.5 4.1 10.2 7 20.8 15.9 34.1 24.1 36.1 2.3.6 26.8.9 59.4.9l55.5-.1 4.3-2.7c6.7-4.3 12-13.5 20.2-35.2 5.6-14.8 12.4-28.5 17.6-35.5l4.3-5.7 14.5.5c34.2 1.1 58.3-7.3 78.2-27.3 6.7-6.7 9-9.9 12.8-17.6 6.1-12.7 7.7-19.7 7.2-33.4-.3-9.1-.9-12.6-3.5-20.1l-3.2-9.2 5.2-10.8c9.8-20.8 14.3-33.6 17.4-49.8 2.3-11.9 3-21.9 2.9-42.6 0-19.2-1.2-35.8-2.8-42.6-.3-1.2-.8-3.9-1.2-6-1.2-7.8-6.4-26.4-10.4-37.5-3.7-10-12.6-29.5-16.2-35.4-.7-1.1-3-4.9-5.2-8.5-4.6-7.4-15.6-22.8-20.1-28-7.1-8.3-26.7-27-34.5-33.1-33.4-26-72.1-42.2-115.5-48.4-4.6-.7-49-1.7-49.6-1.1zm-56.4 240.2c28.6 7 49.1 32.4 50 61.9.3 12.1-1.6 21.2-7.1 32.4-10.8 22.1-32.9 36-57.5 36.2-37.3.3-66.7-30.1-65.8-68.1 1-41.7 40.3-72.3 80.4-62.4zM468 342c18.6 5.1 34.1 21.4 37.9 39.8 6 29.3-12.7 57.7-42 63.8-4.9 1-16.6.4-22.4-1.1-17-4.5-31.9-18.9-36.6-35.5-1.8-6.6-1.9-6.9-2.2-14-1-20.3 11-40.6 29.3-49.3 4.1-2 9.8-4 12.5-4.5 6.5-1.1 17.8-.8 23.5.8zM358.1 474.1c9.4 3.2 17.9 14.3 17.9 23.4 0 6.8-4.7 10.3-16.2 12.1-14.1 2.1-33.1-1.7-35.2-7.1-2.1-5.5 1.4-16.3 7-21.8 6.8-6.8 17.8-9.5 26.5-6.6zm-295 70.5C43.4 549.7 31.6 570 37 589.9c2.4 9.1 10.2 18.1 19.6 22.7 5.2 2.6 7 2.9 15.4 2.9 8 0 10.2-.4 13.9-2.3l4.4-2.3-.7 2.3c-.4 1.3-.9 5.2-1.2 8.8-2.1 23.2 17.2 43.3 40.4 42.4 29.1-1.3 46.6-32.6 32.6-58.4-2.9-5.3-12.7-15-15.1-15-2.5 0-1.3-1.9 5.7-8.6 3.9-3.8 7-7.3 7-7.9s-1.7-1.9-3.7-3c-6.1-3.3-19-13.1-26.6-20.5l-7.2-6.9-9 9c-9 9-9 9-10.5 6.7-7.7-12.2-24.6-18.8-38.9-15.2zm557.3-.1c-7.5 1.7-15.3 6.5-20.1 12.3l-4.2 5.1-8.8-8.8-8.7-8.9-8.9 8.4c-4.9 4.6-13.6 11.4-19.2 15.2l-10.3 6.8 11 10.9c10 10 10.7 11.1 9.1 12.3-5.9 4.3-7.8 6.1-10.3 9.7-9.4 13.6-8.1 32.7 2.9 44.8 8.3 9.1 21.3 13.7 33 11.5 21.2-3.9 34.7-25.3 28.6-45.3-.8-2.7-1.3-5-1.1-5.2.1-.2 2.1.3 4.2 1.1 9 3.1 23.4.8 31.3-5.1 15-11 19.6-29.4 11.4-45.8-7.3-14.8-23.9-22.7-39.9-19z"/></svg>