<svg height="14" width="14" xmlns="http://www.w3.org/2000/svg"><g fill="none" fill-rule="evenodd"><path d="M0 0h14v14H0z"/><path d="M13.963 3.125a.766.766 0 00.036-.25c-.009-.217-.154-.375-.496-.375h-1.527c-.385 0-.563.24-.667.48 0 0-.952 2.016-2.05 3.345-.355.385-.536.375-.728.375-.104 0-.364-.128-.364-.48V3.107c0-.416-.101-.608-.427-.608H5.028c-.238 0-.361.192-.361.385 0 .4.523.496.583 1.617v2.174c0 .528-.09.624-.282.624-.519 0-1.541-1.8-2.225-4.16-.148-.464-.297-.64-.682-.64H.519C.074 2.5 0 2.724 0 2.964c0 .433.35 2.772 2.26 5.461 1.386 1.95 3.211 3.075 4.827 3.075.979 0 1.079-.256 1.079-.656V9.06c0-.48.107-.56.419-.56.222 0 .675.15 1.55 1.2 1.01 1.21 1.193 1.8 1.771 1.8h1.527c.355 0 .559-.153.567-.45a.95.95 0 00-.033-.254c-.113-.346-.632-1.19-1.28-1.996-.358-.446-.712-.887-.875-1.127-.11-.157-.15-.267-.145-.373.005-.111.06-.217.145-.364-.015 0 1.959-2.85 2.151-3.811z" fill="#fff" fill-rule="nonzero"/></g></svg>