<svg height="14" width="24" xmlns="http://www.w3.org/2000/svg"><filter id="a" color-interpolation-filters="auto"><feColorMatrix in="SourceGraphic" values="0 0 0 0 0.584314 0 0 0 0 0.584314 0 0 0 0 0.584314 0 0 0 1.000000 0"/></filter><g fill="none" fill-rule="evenodd" filter="url(#a)"><path d="M19.915 8.02c-.388-.49-.277-.708 0-1.146.005-.005 3.208-4.426 3.538-5.925l.002-.001c.164-.546 0-.948-.793-.948h-2.624c-.668 0-.976.345-1.141.73 0 0-1.336 3.195-3.226 5.265-.61.599-.892.79-1.225.79-.164 0-.419-.191-.419-.738v-5.1c0-.654-.187-.947-.74-.947H9.161c-.419 0-.668.306-.668.59 0 .622.945.764 1.043 2.513v3.792c0 .831-.151.984-.486.984-.892 0-3.057-3.207-4.34-6.878-.259-.712-.512-1-1.185-1H.9c-.749 0-.9.345-.9.73C0 1.412.892 4.8 4.148 9.275c2.17 3.054 5.226 4.71 8.006 4.71 1.671 0 1.875-.368 1.875-1 0-2.92-.151-3.195.686-3.195.388 0 1.056.192 2.616 1.665 1.783 1.747 2.076 2.53 3.074 2.53h2.624c.748 0 1.127-.368.909-1.093-.499-1.526-3.871-4.663-4.023-4.873z" fill="#0074cf" fill-rule="nonzero"/></g></svg>